<svg xmlns="http://www.w3.org/2000/svg" version="1.1" width="512px" height="512px" style="shape-rendering:geometricPrecision; text-rendering:geometricPrecision; image-rendering:optimizeQuality; fill-rule:evenodd; clip-rule:evenodd" xmlns:xlink="http://www.w3.org/1999/xlink">
<g><path style="opacity:0.93" fill="#000000" d="M 511.5,188.5 C 511.5,192.833 511.5,197.167 511.5,201.5C 509.199,206.321 505.866,210.488 501.5,214C 487.537,224.564 472.037,232.064 455,236.5C 450.266,235.933 447.766,233.266 447.5,228.5C 447.556,225.889 448.556,223.722 450.5,222C 464.701,216.899 478.035,210.233 490.5,202C 493.465,200.057 495.131,197.39 495.5,194C 487.545,152.457 472.711,113.624 451,77.5C 444.39,70.7738 436.557,65.9404 427.5,63C 418,59.3334 408.333,56.1667 398.5,53.5C 394.123,57.2257 390.956,61.8924 389,67.5C 385.066,75.4703 382.232,83.8036 380.5,92.5C 384.808,93.0173 389.141,93.3507 393.5,93.5C 401.827,92.5544 410.161,92.0544 418.5,92C 435,99.1667 446.833,111 454,127.5C 457.095,139.828 459.261,152.328 460.5,165C 458.858,173.315 453.858,176.982 445.5,176C 428.175,164.254 409.175,160.254 388.5,164C 378.201,166.767 368.034,169.933 358,173.5C 352.171,172.002 346.338,170.502 340.5,169C 326.13,167.608 311.797,165.942 297.5,164C 289.691,162.675 282.524,159.841 276,155.5C 274.575,148.615 274.075,141.615 274.5,134.5C 261.833,134.5 249.167,134.5 236.5,134.5C 236.925,141.615 236.425,148.615 235,155.5C 228.476,159.841 221.309,162.675 213.5,164C 199.203,165.942 184.87,167.608 170.5,169C 164.662,170.502 158.829,172.002 153,173.5C 142.966,169.933 132.799,166.767 122.5,164C 101.825,160.254 82.8246,164.254 65.5,176C 57.1423,176.982 52.1423,173.315 50.5,165C 51.7385,152.328 53.9052,139.828 57,127.5C 64.1667,111 76,99.1667 92.5,92C 100.839,92.0544 109.173,92.5544 117.5,93.5C 121.859,93.3507 126.192,93.0173 130.5,92.5C 127.611,79.7207 122.777,67.7207 116,56.5C 115.255,55.0096 114.088,54.0096 112.5,53.5C 96.0645,57.8099 80.3978,63.9765 65.5,72C 58.5488,80.0617 52.7155,88.895 48,98.5C 31.8957,129.811 21.229,162.811 16,197.5C 23.0747,204.567 31.2413,210.067 40.5,214C 61.6185,222.891 83.6185,228.224 106.5,230C 122.147,231.078 137.814,231.745 153.5,232C 159.335,235.855 160.002,240.522 155.5,246C 151.204,246.964 146.87,247.797 142.5,248.5C 146.453,260.86 151.286,272.86 157,284.5C 163.759,294.253 170.093,304.253 176,314.5C 176.5,334.831 176.667,355.164 176.5,375.5C 229.167,375.5 281.833,375.5 334.5,375.5C 334.333,355.164 334.5,334.831 335,314.5C 335.725,312.051 336.725,309.717 338,307.5C 352.356,290.126 362.522,270.459 368.5,248.5C 364.13,247.797 359.796,246.964 355.5,246C 350.998,240.522 351.665,235.855 357.5,232C 378.571,232.03 399.571,230.863 420.5,228.5C 429.044,229.229 431.544,233.563 428,241.5C 426.829,242.893 425.329,243.727 423.5,244C 410.615,245.502 397.782,247.002 385,248.5C 378.45,274.264 367.117,297.597 351,318.5C 350.333,347.5 350.333,376.5 351,405.5C 353.948,434.369 357.115,463.203 360.5,492C 357.475,501.201 352.309,502.701 345,496.5C 340.437,461.599 336.937,426.599 334.5,391.5C 282.167,391.5 229.833,391.5 177.5,391.5C 174.07,426.535 170.237,461.535 166,496.5C 158.691,502.701 153.525,501.201 150.5,492C 153.885,463.203 157.052,434.369 160,405.5C 160.667,376.5 160.667,347.5 160,318.5C 143.883,297.597 132.55,274.264 126,248.5C 97.0803,247.04 68.9137,241.54 41.5,232C 26.4097,226.378 13.2431,217.878 2,206.5C 1.24316,204.685 0.409824,203.019 -0.5,201.5C -0.5,197.167 -0.5,192.833 -0.5,188.5C 8.62451,145.576 24.4578,105.243 47,67.5C 56.9852,57.4178 68.8186,50.2512 82.5,46C 93.2407,41.9196 104.241,38.753 115.5,36.5C 120.346,37.1727 124.179,39.506 127,43.5C 135.651,56.7782 141.984,71.1116 146,86.5C 148.896,97.836 144.729,105.003 133.5,108C 121.968,110.054 110.468,109.887 99,107.5C 78.1979,116.773 68.3646,132.773 69.5,155.5C 97.6108,143.052 125.444,143.719 153,157.5C 156.347,155.94 159.847,154.773 163.5,154C 177.791,151.974 192.124,150.307 206.5,149C 210.965,148.301 215.298,147.134 219.5,145.5C 220.833,140.167 220.833,134.833 219.5,129.5C 212.18,124.673 207.346,118.007 205,109.5C 202.837,92.2087 201.004,74.8754 199.5,57.5C 199.914,51.3502 201.08,45.3502 203,39.5C 206.659,30.7719 211.992,29.4386 219,35.5C 219.667,38.1667 219.667,40.8333 219,43.5C 217.074,47.7923 215.908,52.2923 215.5,57C 217.06,72.493 218.56,87.993 220,103.5C 221.386,111.22 225.886,116.053 233.5,118C 248.167,118.667 262.833,118.667 277.5,118C 285.114,116.053 289.614,111.22 291,103.5C 292.44,87.993 293.94,72.493 295.5,57C 293.848,40.3495 284.848,30.3495 268.5,27C 258.812,26.2445 249.146,26.4112 239.5,27.5C 232.727,26.3025 230.227,22.3025 232,15.5C 234.273,12.196 237.439,10.696 241.5,11C 250.833,10.3333 260.167,10.3333 269.5,11C 295.556,15.5579 309.556,31.0579 311.5,57.5C 309.97,73.1638 308.47,88.8305 307,104.5C 305.877,115.427 300.71,123.76 291.5,129.5C 290.505,134.792 290.172,140.125 290.5,145.5C 295.057,146.973 299.724,148.139 304.5,149C 318.876,150.307 333.209,151.974 347.5,154C 351.101,154.94 354.601,156.107 358,157.5C 385.556,143.719 413.389,143.052 441.5,155.5C 442.635,132.773 432.802,116.773 412,107.5C 400.532,109.887 389.032,110.054 377.5,108C 366.271,105.003 362.104,97.836 365,86.5C 369.262,68.8095 377.096,52.9762 388.5,39C 390.725,37.8694 393.058,37.0361 395.5,36.5C 417.297,40.707 437.63,48.5404 456.5,60C 459,62.5 461.5,65 464,67.5C 486.542,105.243 502.375,145.576 511.5,188.5 Z"/></g>
<g><path style="opacity:0.925" fill="#000000" d="M 229.5,176.5 C 239.597,175.532 248.263,178.532 255.5,185.5C 263.654,177.275 273.154,174.942 284,178.5C 286.402,183.114 285.902,187.281 282.5,191C 274.957,191.185 269.123,194.352 265,200.5C 263.745,210.093 263.079,219.76 263,229.5C 260.565,234.224 256.731,235.724 251.5,234C 249.951,232.786 248.785,231.286 248,229.5C 247.667,220.833 247.333,212.167 247,203.5C 246.3,199.934 244.467,197.1 241.5,195C 237.346,193.139 233.013,191.806 228.5,191C 225.606,188.091 224.773,184.591 226,180.5C 226.69,178.65 227.856,177.316 229.5,176.5 Z"/></g>
<g><path style="opacity:0.915" fill="#000000" d="M 223.5,252.5 C 229.658,252.162 233.324,254.995 234.5,261C 233.039,283.279 222.039,298.613 201.5,307C 191.963,308.468 188.463,304.635 191,295.5C 197.861,291.978 204.194,287.645 210,282.5C 215.573,274.784 218.573,266.117 219,256.5C 220.397,254.93 221.897,253.596 223.5,252.5 Z"/></g>
<g><path style="opacity:0.915" fill="#000000" d="M 282.5,252.5 C 286.426,252.047 289.592,253.38 292,256.5C 292.427,266.117 295.427,274.784 301,282.5C 306.806,287.645 313.139,291.978 320,295.5C 322.537,304.635 319.037,308.468 309.5,307C 288.961,298.613 277.961,283.279 276.5,261C 277.161,257.179 279.161,254.346 282.5,252.5 Z"/></g>
<g><path style="opacity:0.915" fill="#000000" d="M 253.5,299.5 C 257.794,299.198 260.961,300.864 263,304.5C 263.667,319.5 263.667,334.5 263,349.5C 260.565,354.224 256.731,355.724 251.5,354C 249.951,352.786 248.785,351.286 248,349.5C 247.333,334.5 247.333,319.5 248,304.5C 249.107,301.887 250.94,300.22 253.5,299.5 Z"/></g>
<g><path style="opacity:0.918" fill="#000000" d="M 252.5,452.5 C 261.551,452.108 268.384,455.774 273,463.5C 275.321,474.045 276.321,484.712 276,495.5C 272.259,501.058 267.759,501.725 262.5,497.5C 260.346,488.658 258.846,479.658 258,470.5C 256.333,467.833 254.667,467.833 253,470.5C 252.154,479.658 250.654,488.658 248.5,497.5C 243.241,501.725 238.741,501.058 235,495.5C 234.491,483.923 235.824,472.59 239,461.5C 242.528,456.834 247.028,453.834 252.5,452.5 Z"/></g>
</svg>
