<?xml version="1.0" encoding="UTF-8"?>
<!DOCTYPE svg PUBLIC "-//W3C//DTD SVG 1.1//EN" "http://www.w3.org/Graphics/SVG/1.1/DTD/svg11.dtd">
<svg xmlns="http://www.w3.org/2000/svg" version="1.1" width="512px" height="512px" style="shape-rendering:geometricPrecision; text-rendering:geometricPrecision; image-rendering:optimizeQuality; fill-rule:evenodd; clip-rule:evenodd" xmlns:xlink="http://www.w3.org/1999/xlink">
<g><path style="opacity:0.942" fill="#000000" d="M 252.5,36.5 C 267.496,35.8605 281.162,39.6939 293.5,48C 298.833,54.3333 304.167,60.6667 309.5,67C 364.784,95.2804 408.951,135.78 442,188.5C 460.852,218.872 476.519,250.872 489,284.5C 491.246,293.376 490.579,302.043 487,310.5C 478.167,327.333 465.333,340.167 448.5,349C 416.451,361.69 385.117,376.023 354.5,392C 306.237,410.683 256.903,414.017 206.5,402C 193.009,397.949 179.843,393.115 167,387.5C 164.757,391.223 163.09,395.223 162,399.5C 156.47,435.17 137.303,460.17 104.5,474.5C 95.4171,472.666 92.2504,467.333 95,458.5C 102.921,453.123 110.754,447.623 118.5,442C 125.354,435.13 130.854,427.296 135,418.5C 138.511,406.121 142.178,393.788 146,381.5C 151.447,369.694 160.613,365.194 173.5,368C 185.156,372.33 196.822,376.663 208.5,381C 254.268,392.931 299.268,390.598 343.5,374C 374.784,357.69 406.784,343.024 439.5,330C 451.667,323.167 461.167,313.667 468,301.5C 470,296.833 470,292.167 468,287.5C 449.983,240.774 425.316,198.107 394,159.5C 367.083,128.236 335.25,103.403 298.5,85C 291.152,78.3168 284.485,70.9834 278.5,63C 269.074,58.0956 259.074,56.4289 248.5,58C 233.768,60.5211 218.935,62.0211 204,62.5C 194.562,62.4513 185.229,61.4513 176,59.5C 170.004,59.8316 165.337,62.4982 162,67.5C 155.979,78.0625 152.479,89.3958 151.5,101.5C 151.309,109.62 154.642,115.787 161.5,120C 172.793,124.207 184.459,125.541 196.5,124C 208.56,123.068 220.227,120.402 231.5,116C 237.718,113.058 244.051,110.391 250.5,108C 273.668,103.005 290.835,110.838 302,131.5C 309.191,145.407 314.191,160.074 317,175.5C 319.574,189.756 321.574,204.09 323,218.5C 324.608,227.658 327.608,236.325 332,244.5C 340.311,253.79 347.644,263.79 354,274.5C 354.479,285.689 349.312,289.856 338.5,287C 332.667,279.167 326.833,271.333 321,263.5C 291.143,228.66 254.31,218.16 210.5,232C 192.866,250.728 172.033,264.561 148,273.5C 138.787,271.745 135.787,266.411 139,257.5C 147.751,252.207 156.585,247.041 165.5,242C 169.783,239.385 173.783,236.385 177.5,233C 128.804,206.186 82.8035,210.186 39.5,245C 30.6636,248.169 25.3303,245.169 23.5,236C 24.1629,231.324 26.4963,227.658 30.5,225C 79.7294,189.345 131.396,185.345 185.5,213C 190.5,213.667 195.5,213.667 200.5,213C 234.816,201.164 268.149,203.331 300.5,219.5C 300.993,191.803 295.16,165.469 283,140.5C 278.496,132.493 271.663,127.826 262.5,126.5C 247.767,132.356 232.767,137.523 217.5,142C 198.466,146.338 179.466,146.338 160.5,142C 141.202,135.518 131.202,122.018 130.5,101.5C 131.716,86.3039 135.882,71.9706 143,58.5C 150.328,46.502 160.995,39.8353 175,38.5C 184.671,40.6367 194.505,41.6367 204.5,41.5C 220.757,40.934 236.757,39.2674 252.5,36.5 Z"/></g>
<g><path style="opacity:0.934" fill="#000000" d="M 411.5,241.5 C 414.978,241.184 418.312,241.684 421.5,243C 437.347,263.357 438.514,284.524 425,306.5C 416.367,316.391 406.2,324.225 394.5,330C 382.162,331.662 377.662,326.495 381,314.5C 388.253,309.79 395.42,304.957 402.5,300C 411.513,292.138 415.013,282.304 413,270.5C 410.164,264.162 407.331,257.828 404.5,251.5C 405.304,247.04 407.637,243.707 411.5,241.5 Z"/></g>
<g><path style="opacity:0.935" fill="#000000" d="M 106.5,299.5 C 118.824,299.489 122.657,305.156 118,316.5C 87.5029,332.664 64.8362,356.331 50,387.5C 44.573,400.967 41.573,414.967 41,429.5C 39.5662,434.55 36.2329,436.883 31,436.5C 23.7058,436.204 20.2058,432.37 20.5,425C 25.189,375.944 47.8557,337.611 88.5,310C 94.4312,306.207 100.431,302.707 106.5,299.5 Z"/></g>
<g><path style="opacity:0.941" fill="#000000" d="M 217.5,303.5 C 224.574,303.161 231.574,303.661 238.5,305C 243.275,308.655 244.775,313.488 243,319.5C 238.315,324.513 232.648,325.847 226,323.5C 220.803,324.347 215.97,326.181 211.5,329C 193.592,346.191 172.258,353.191 147.5,350C 141.003,349 135.169,346.5 130,342.5C 124.494,330.325 128.327,324.492 141.5,325C 146.469,328.768 152.135,330.601 158.5,330.5C 174.916,329.124 188.916,322.624 200.5,311C 206.032,307.894 211.699,305.394 217.5,303.5 Z"/></g>
</svg>
