<?xml version="1.0" encoding="UTF-8"?>
<!DOCTYPE svg PUBLIC "-//W3C//DTD SVG 1.1//EN" "http://www.w3.org/Graphics/SVG/1.1/DTD/svg11.dtd">
<svg xmlns="http://www.w3.org/2000/svg" version="1.1" width="512px" height="512px" style="shape-rendering:geometricPrecision; text-rendering:geometricPrecision; image-rendering:optimizeQuality; fill-rule:evenodd; clip-rule:evenodd" xmlns:xlink="http://www.w3.org/1999/xlink">
<g><path style="opacity:0.915" fill="#000000" d="M 197.5,60.5 C 203.34,59.5793 207.007,61.9127 208.5,67.5C 206,77.5 203.5,87.5 201,97.5C 200.535,98.9308 199.701,100.097 198.5,101C 178.283,110.875 160.616,124.208 145.5,141C 144.167,141.667 142.833,142.333 141.5,143C 122.933,143.317 104.933,146.65 87.5,153C 75.9568,157.211 67.6235,164.878 62.5,176C 55.6787,179.257 51.6787,177.257 50.5,170C 53.7708,159.051 60.4374,150.718 70.5,145C 91.2655,134.645 113.265,128.979 136.5,128C 149.252,115.8 162.919,104.8 177.5,95C 180.5,93.5 183.5,92 186.5,90.5C 189.453,82.3669 191.953,74.0336 194,65.5C 194.997,63.6769 196.164,62.0103 197.5,60.5 Z"/></g>
<g><path style="opacity:0.915" fill="#000000" d="M 307.5,60.5 C 310.97,59.8748 313.804,60.8748 316,63.5C 318.615,72.4788 321.448,81.3122 324.5,90C 344.118,99.9523 361.785,112.619 377.5,128C 395.345,129.236 412.678,132.902 429.5,139C 443.157,144.325 453.324,153.492 460,166.5C 461.515,176.158 457.681,179.325 448.5,176C 443.441,165.275 435.441,157.608 424.5,153C 406.992,146.75 388.992,143.083 370.5,142C 353.94,124.389 334.607,110.722 312.5,101C 311.299,100.097 310.465,98.9308 310,97.5C 307.5,87.5 305,77.5 302.5,67.5C 303.06,64.288 304.727,61.9547 307.5,60.5 Z"/></g>
<g><path style="opacity:0.846" fill="#000000" d="M 403.5,87.5 C 411.431,87.6603 414.265,91.6603 412,99.5C 407.375,103.646 403.041,103.313 399,98.5C 397.393,93.4383 398.893,89.7716 403.5,87.5 Z"/></g>
<g><path style="opacity:0.918" fill="#000000" d="M 175.5,132.5 C 197.994,136.032 220.327,140.532 242.5,146C 246.633,149.131 250.466,152.631 254,156.5C 257.534,152.631 261.367,149.131 265.5,146C 283.5,142 301.5,138 319.5,134C 323.779,132.756 328.112,132.423 332.5,133C 336.696,135.981 337.529,139.814 335,144.5C 333.352,145.717 331.519,146.55 329.5,147C 310.138,151.206 290.805,155.539 271.5,160C 266.545,165.797 260.879,170.631 254.5,174.5C 247.511,171.023 241.511,166.189 236.5,160C 216.191,155.205 195.857,150.538 175.5,146C 170.301,141.371 170.301,136.871 175.5,132.5 Z"/></g>
<g><path style="opacity:0.915" fill="#000000" d="M 251.5,214.5 C 255.603,213.769 259.103,214.769 262,217.5C 266.536,232.775 270.869,248.108 275,263.5C 277.167,268.333 280.667,271.833 285.5,274C 317.786,275.637 350.119,275.971 382.5,275C 390.469,266.03 398.803,257.363 407.5,249C 415.791,247.045 419.291,250.212 418,258.5C 408.5,268.667 399,278.833 389.5,289C 388.5,289.333 387.5,289.667 386.5,290C 354.167,290.667 321.833,290.667 289.5,290C 278.546,288.777 270.046,283.61 264,274.5C 260.539,266.784 257.873,258.784 256,250.5C 253.546,256.635 251.546,262.968 250,269.5C 245.287,279.213 237.787,285.713 227.5,289C 195.534,290.622 163.534,290.955 131.5,290C 130.5,289.667 129.5,289.333 128.5,289C 118.97,279.804 109.803,270.304 101,260.5C 97.6751,251.319 100.842,247.485 110.5,249C 119.197,257.363 127.531,266.03 135.5,275C 164.5,275.667 193.5,275.667 222.5,275C 229.573,272.928 234.406,268.428 237,261.5C 240.489,249.21 243.822,236.877 247,224.5C 247.836,220.809 249.336,217.476 251.5,214.5 Z"/></g>
<g><path style="opacity:0.914" fill="#000000" d="M 107.5,292.5 C 110.32,292.248 112.986,292.748 115.5,294C 117.795,297.297 120.462,300.297 123.5,303C 132.814,307.765 142.314,311.931 152,315.5C 152.923,317.034 153.423,318.701 153.5,320.5C 151.87,327.464 152.704,334.13 156,340.5C 160.355,348.542 165.688,355.875 172,362.5C 176.237,371.448 173.404,375.615 163.5,375C 148.625,361.753 139.625,345.253 136.5,325.5C 131.858,323.787 127.358,321.787 123,319.5C 125.357,333.246 129.357,346.579 135,359.5C 143.272,375.711 151.272,392.044 159,408.5C 159.922,421.557 159.589,434.557 158,447.5C 153.199,451.749 148.866,451.416 145,446.5C 144.667,434.5 144.333,422.5 144,410.5C 137.255,396.677 130.255,383.01 123,369.5C 112.742,346.131 106.408,321.798 104,296.5C 105.376,295.295 106.542,293.962 107.5,292.5 Z"/></g>
<g><path style="opacity:0.923" fill="#000000" d="M 402.5,292.5 C 411.386,291.891 414.553,295.891 412,304.5C 402.355,343.135 386.355,378.802 364,411.5C 363.961,423.929 363.294,436.262 362,448.5C 357.267,451.6 353.267,450.934 350,446.5C 349.333,432.833 349.333,419.167 350,405.5C 359.504,390.496 368.504,375.162 377,359.5C 382.367,346.396 387.534,333.229 392.5,320C 386.415,322.301 380.082,324.135 373.5,325.5C 371.3,345.4 362.633,361.9 347.5,375C 341.386,376.446 337.72,374.113 336.5,368C 343.043,359.117 349.21,349.95 355,340.5C 358.296,334.13 359.13,327.464 357.5,320.5C 357.577,318.701 358.077,317.034 359,315.5C 367.015,312.494 375.182,309.66 383.5,307C 391.466,304.188 397.799,299.355 402.5,292.5 Z"/></g>
<g><path style="opacity:0.899" fill="#000000" d="M 251.5,350.5 C 255.888,349.943 259.055,351.61 261,355.5C 261.667,375.5 261.667,395.5 261,415.5C 258.487,419.212 254.987,420.378 250.5,419C 248.951,417.786 247.785,416.286 247,414.5C 246.333,394.833 246.333,375.167 247,355.5C 248.025,353.313 249.525,351.646 251.5,350.5 Z"/></g>
<g><path style="opacity:0.911" fill="#000000" d="M 80.5,398.5 C 86.4017,398.035 90.9017,400.368 94,405.5C 96.1667,403.333 98.3333,401.167 100.5,399C 107.631,397.471 111.131,400.304 111,407.5C 109.6,410.902 107.433,413.736 104.5,416C 108.273,418.595 110.606,422.095 111.5,426.5C 110.289,431.938 106.956,434.105 101.5,433C 98.7047,431.207 96.2047,429.04 94,426.5C 91.7953,429.04 89.2953,431.207 86.5,433C 78.212,434.291 75.0454,430.791 77,422.5C 79.1667,420.333 81.3333,418.167 83.5,416C 81.3333,413.833 79.1667,411.667 77,409.5C 75.518,404.774 76.6847,401.107 80.5,398.5 Z"/></g>
<g><path style="opacity:0.822" fill="#000000" d="M 251.5,425.5 C 258.657,425.155 261.824,428.488 261,435.5C 256.333,442.167 251.667,442.167 247,435.5C 246.077,431.017 247.577,427.683 251.5,425.5 Z"/></g>
</svg>
