<?xml version="1.0" encoding="UTF-8"?>
<!DOCTYPE svg PUBLIC "-//W3C//DTD SVG 1.1//EN" "http://www.w3.org/Graphics/SVG/1.1/DTD/svg11.dtd">
<svg xmlns="http://www.w3.org/2000/svg" version="1.1" width="512px" height="512px" style="shape-rendering:geometricPrecision; text-rendering:geometricPrecision; image-rendering:optimizeQuality; fill-rule:evenodd; clip-rule:evenodd" xmlns:xlink="http://www.w3.org/1999/xlink">
<g><path style="opacity:0.967" fill="#000000" d="M 142.5,-0.5 C 153.5,-0.5 164.5,-0.5 175.5,-0.5C 178.509,50.3 164.176,95.4667 132.5,135C 180.811,142.99 226.477,158.657 269.5,182C 294.638,192.455 319.972,193.121 345.5,184C 358.452,177.782 369.618,169.282 379,158.5C 375.353,133.294 372.353,107.96 370,82.5C 368.259,54.8365 367.093,27.1698 366.5,-0.5C 377.5,-0.5 388.5,-0.5 399.5,-0.5C 398.659,73.437 407.825,146.104 427,217.5C 444.886,270.712 458.22,325.045 467,380.5C 472.997,423.96 475.831,467.626 475.5,511.5C 464.5,511.5 453.5,511.5 442.5,511.5C 443.906,425.34 431.239,341.34 404.5,259.5C 397.17,270.342 390.004,281.342 383,292.5C 366.909,314.631 345.409,328.298 318.5,333.5C 327.963,386.813 337.296,440.146 346.5,493.5C 335.867,495.383 325.201,497.05 314.5,498.5C 304.203,440.382 293.37,382.382 282,324.5C 259.704,296.88 232.204,276.047 199.5,262C 161.025,245.215 121.025,233.715 79.5,227.5C 66.6587,265.336 65.1587,303.67 75,342.5C 87.6356,393.922 108.136,441.922 136.5,486.5C 128.328,492.495 119.995,498.329 111.5,504C 110.5,504.667 109.5,504.667 108.5,504C 73.979,450.453 50.8124,392.287 39,329.5C 31.1473,282.655 37.1473,237.655 57,194.5C 70.9625,162.905 89.2959,134.238 112,108.5C 134.467,75.6331 144.634,39.2998 142.5,-0.5 Z M 109.5,167.5 C 130.289,167.631 150.622,170.798 170.5,177C 202.081,187.457 232.747,200.124 262.5,215C 299.089,228.088 334.756,226.088 369.5,209C 375.612,205.221 381.445,201.055 387,196.5C 389.133,202.356 390.967,208.356 392.5,214.5C 379.593,236.234 366.093,257.567 352,278.5C 340.102,291.451 325.435,299.451 308,302.5C 281.294,271.483 249.127,247.649 211.5,231C 173.367,214.955 134.034,202.955 93.5,195C 98.4664,185.56 103.8,176.393 109.5,167.5 Z"/></g>
<g><path style="opacity:0.97" fill="#000000" d="M 282.5,95.5 C 293.5,95.5 304.5,95.5 315.5,95.5C 315.5,106.167 315.5,116.833 315.5,127.5C 304.5,127.5 293.5,127.5 282.5,127.5C 282.5,116.833 282.5,106.167 282.5,95.5 Z"/></g>
</svg>
