<?xml version="1.0" encoding="UTF-8"?>
<!DOCTYPE svg PUBLIC "-//W3C//DTD SVG 1.1//EN" "http://www.w3.org/Graphics/SVG/1.1/DTD/svg11.dtd">
<svg xmlns="http://www.w3.org/2000/svg" version="1.1" width="512px" height="512px" style="shape-rendering:geometricPrecision; text-rendering:geometricPrecision; image-rendering:optimizeQuality; fill-rule:evenodd; clip-rule:evenodd" xmlns:xlink="http://www.w3.org/1999/xlink">
<g><path style="opacity:0.93" fill="#000000" d="M 180.5,5.5 C 181.822,5.33003 182.989,5.66337 184,6.5C 194,47.1667 194,87.8333 184,128.5C 183.439,129.022 182.772,129.355 182,129.5C 177.196,128.306 172.363,127.306 167.5,126.5C 169.987,113.232 172.153,99.8983 174,86.5C 174.667,73.8333 174.667,61.1667 174,48.5C 172.153,35.1017 169.987,21.7683 167.5,8.5C 172.035,7.8632 176.368,6.8632 180.5,5.5 Z"/></g>
<g><path style="opacity:0.93" fill="#000000" d="M 327.5,5.5 C 332.833,6.5 338.167,7.5 343.5,8.5C 334.211,47.0003 334.211,85.5003 343.5,124C 343.245,125.326 342.578,126.326 341.5,127C 337.318,127.78 333.151,128.614 329,129.5C 328.228,129.355 327.561,129.022 327,128.5C 316.852,87.4094 317.019,46.4094 327.5,5.5 Z"/></g>
<g><path style="opacity:0.942" fill="#000000" d="M 95.5,7.5 C 100.833,7.5 106.167,7.5 111.5,7.5C 111.789,20.2528 112.956,32.9194 115,45.5C 119.141,60.7836 124.141,75.7836 130,90.5C 134.379,106.535 136.379,122.868 136,139.5C 137.507,138.465 139.007,138.632 140.5,140C 143.98,142.646 147.314,145.479 150.5,148.5C 124.296,179.646 115.129,215.313 123,255.5C 138.237,302.353 147.571,350.353 151,399.5C 151.667,411.5 151.667,423.5 151,435.5C 150.07,437.552 148.57,439.052 146.5,440C 128.5,450 110.5,460 92.5,470C 86.346,470.755 80.346,472.088 74.5,474C 70.7418,480.507 72.4085,484.841 79.5,487C 119.5,487.667 159.5,487.667 199.5,487C 211.343,485.153 216.176,478.32 214,466.5C 207.329,457.833 201.662,448.499 197,438.5C 191.898,425.612 190.231,412.278 192,398.5C 194.833,375.833 197.667,353.167 200.5,330.5C 200.167,329.167 199.833,327.833 199.5,326.5C 188.898,329.576 180.065,326.91 173,318.5C 165.442,304.551 158.276,290.385 151.5,276C 151.645,275.228 151.978,274.561 152.5,274C 157.046,271.385 161.713,269.385 166.5,268C 173.461,281.422 180.294,294.922 187,308.5C 190.043,310.908 193.209,311.074 196.5,309C 218.815,279.58 227.315,246.413 222,209.5C 220.89,194.92 216.89,181.254 210,168.5C 204.686,163.343 198.353,160.343 191,159.5C 190.501,154.177 190.334,148.844 190.5,143.5C 198.894,142.848 206.56,144.848 213.5,149.5C 214.662,144.869 214.828,140.202 214,135.5C 208.189,119.636 206.189,103.303 208,86.5C 214.547,72.0709 220.547,57.4042 226,42.5C 229.324,31.0657 230.824,19.399 230.5,7.5C 236.167,7.5 241.833,7.5 247.5,7.5C 247.71,34.7077 240.877,60.041 227,83.5C 224.007,93.7093 223.674,104.043 226,114.5C 232.215,131.46 233.049,148.627 228.5,166C 234.11,179.608 237.61,193.775 239,208.5C 243.525,242.54 237.525,274.54 221,304.5C 216.422,339.457 212.255,374.457 208.5,409.5C 209.456,426.406 215.623,441.072 227,453.5C 235.625,471.3 232.458,486.466 217.5,499C 214.326,500.725 210.993,502.058 207.5,503C 162.5,503.667 117.5,503.667 72.5,503C 57.2416,496.644 52.0749,485.477 57,469.5C 60.3141,462.851 65.4808,458.351 72.5,456C 77.9219,455.43 83.2552,454.43 88.5,453C 103.913,444.545 119.079,435.712 134,426.5C 134.112,373.172 125.779,321.172 109,270.5C 98.835,233.838 102.168,198.504 119,164.5C 120.019,144.721 119.019,125.054 116,105.5C 111.859,90.2164 106.859,75.2164 101,60.5C 96.1533,43.1557 94.32,25.489 95.5,7.5 Z"/></g>
<g><path style="opacity:0.942" fill="#000000" d="M 263.5,7.5 C 269.167,7.5 274.833,7.5 280.5,7.5C 280.176,19.399 281.676,31.0657 285,42.5C 290.453,57.4042 296.453,72.0709 303,86.5C 304.811,103.303 302.811,119.636 297,135.5C 296.333,140.167 296.333,144.833 297,149.5C 304.158,144.919 311.991,142.919 320.5,143.5C 320.666,148.844 320.499,154.177 320,159.5C 308.514,160.904 300.514,166.904 296,177.5C 288.877,200.995 286.543,224.995 289,249.5C 292.068,270.958 300.068,290.291 313,307.5C 316.397,310.981 320.064,311.314 324,308.5C 330.706,294.922 337.539,281.422 344.5,268C 349.287,269.385 353.954,271.385 358.5,274C 359.022,274.561 359.355,275.228 359.5,276C 352.724,290.385 345.558,304.551 338,318.5C 330.935,326.91 322.102,329.576 311.5,326.5C 311.167,327.833 310.833,329.167 310.5,330.5C 313.333,353.167 316.167,375.833 319,398.5C 320.769,412.278 319.102,425.612 314,438.5C 308.836,448.166 303.169,457.5 297,466.5C 294.824,478.32 299.657,485.153 311.5,487C 351.5,487.667 391.5,487.667 431.5,487C 438.592,484.841 440.258,480.507 436.5,474C 425.869,472.679 415.869,469.345 406.5,464C 392.5,456 378.5,448 364.5,440C 362.43,439.052 360.93,437.552 360,435.5C 358.737,391.869 363.403,348.869 374,306.5C 378.822,289.544 383.489,272.544 388,255.5C 395.871,215.313 386.704,179.646 360.5,148.5C 364.653,144.925 368.986,141.591 373.5,138.5C 374.086,138.709 374.586,139.043 375,139.5C 374.621,122.868 376.621,106.535 381,90.5C 386.859,75.7836 391.859,60.7836 396,45.5C 398.044,32.9194 399.211,20.2528 399.5,7.5C 404.833,7.5 410.167,7.5 415.5,7.5C 416.68,25.489 414.847,43.1557 410,60.5C 404.141,75.2164 399.141,90.2164 395,105.5C 391.981,125.054 390.981,144.721 392,164.5C 407.974,195.659 411.974,228.326 404,262.5C 389.226,307.371 380.226,353.371 377,400.5C 376.333,409.167 376.333,417.833 377,426.5C 391.921,435.712 407.087,444.545 422.5,453C 427.745,454.43 433.078,455.43 438.5,456C 452.482,461.457 457.982,471.624 455,486.5C 452.167,494.667 446.667,500.167 438.5,503C 393.5,503.667 348.5,503.667 303.5,503C 282.99,495.486 275.49,480.986 281,459.5C 286,451.833 291,444.167 296,436.5C 300.211,427.989 302.378,418.989 302.5,409.5C 298.745,374.457 294.578,339.457 290,304.5C 273.45,274.543 267.45,242.543 272,208.5C 273.219,193.729 276.719,179.563 282.5,166C 281.291,162.963 280.457,159.796 280,156.5C 279.333,148.833 279.333,141.167 280,133.5C 283.71,122.284 285.877,110.784 286.5,99C 286.781,93.6378 285.947,88.4712 284,83.5C 270.123,60.041 263.29,34.7077 263.5,7.5 Z"/></g>
</svg>
