<?xml version="1.0" encoding="UTF-8"?>
<!DOCTYPE svg PUBLIC "-//W3C//DTD SVG 1.1//EN" "http://www.w3.org/Graphics/SVG/1.1/DTD/svg11.dtd">
<svg xmlns="http://www.w3.org/2000/svg" version="1.1" width="512px" height="512px" style="shape-rendering:geometricPrecision; text-rendering:geometricPrecision; image-rendering:optimizeQuality; fill-rule:evenodd; clip-rule:evenodd" xmlns:xlink="http://www.w3.org/1999/xlink">
<g><path style="opacity:0.947" fill="#000000" d="M 261.5,-0.5 C 265.5,-0.5 269.5,-0.5 273.5,-0.5C 281.558,3.73613 285.058,10.4028 284,19.5C 282.067,27.2979 279.734,34.9646 277,42.5C 270.346,50.7636 262.179,52.5969 252.5,48C 247.758,44.5165 245.425,39.8498 245.5,34C 246.801,25.2976 248.967,16.7976 252,8.5C 254.406,4.59151 257.572,1.59151 261.5,-0.5 Z"/></g>
<g><path style="opacity:0.945" fill="#000000" d="M 115.5,10.5 C 123.38,9.18074 129.88,11.5141 135,17.5C 140,26.5 145,35.5 150,44.5C 153.158,57.8477 147.991,65.8477 134.5,68.5C 130.027,68.1767 126.027,66.6767 122.5,64C 116.623,55.0819 111.123,45.9153 106,36.5C 101.251,24.7821 104.418,16.1154 115.5,10.5 Z"/></g>
<g><path style="opacity:0.965" fill="#000000" d="M 511.5,57.5 C 511.5,60.5 511.5,63.5 511.5,66.5C 509.44,71.7294 505.774,75.5627 500.5,78C 431.072,84.1889 365.072,102.522 302.5,133C 299.5,133.667 296.5,133.667 293.5,133C 244.292,120.256 202.459,132.423 168,169.5C 143.404,203.393 136.571,240.726 147.5,281.5C 142.048,295.685 136.882,310.019 132,324.5C 119.081,369.924 119.414,415.257 133,460.5C 136.904,471.966 141.071,483.299 145.5,494.5C 144.656,502.56 140.656,508.227 133.5,511.5C 129.833,511.5 126.167,511.5 122.5,511.5C 117.606,509.776 114.106,506.443 112,501.5C 80.5032,427.401 80.6699,353.401 112.5,279.5C 100.551,222.769 114.885,173.936 155.5,133C 196.258,97.9776 242.924,86.4776 295.5,98.5C 359.22,68.3201 426.22,50.4868 496.5,45C 503.809,46.482 508.809,50.6486 511.5,57.5 Z"/></g>
<g><path style="opacity:0.949" fill="#000000" d="M 23.5,104.5 C 27.1817,104.335 30.8484,104.501 34.5,105C 44.9901,110.078 55.3235,115.411 65.5,121C 72.0152,127.951 73.1819,135.784 69,144.5C 63.8785,150.652 57.3785,152.818 49.5,151C 39.0099,145.922 28.6765,140.589 18.5,135C 11.6801,128.555 10.1801,121.055 14,112.5C 16.7348,109.231 19.9014,106.564 23.5,104.5 Z"/></g>
<g><path style="opacity:0.946" fill="#000000" d="M -0.5,281.5 C -0.5,278.5 -0.5,275.5 -0.5,272.5C 1.55952,267.271 5.22618,263.437 10.5,261C 21.0821,257.528 31.7488,254.361 42.5,251.5C 56.017,254.215 61.1837,262.215 58,275.5C 56.9392,278.562 55.1059,281.062 52.5,283C 41.6476,287.062 30.6476,290.729 19.5,294C 9.59883,294.921 2.93216,290.754 -0.5,281.5 Z"/></g>
<g><path style="opacity:0.963" fill="#000000" d="M 298.5,511.5 C 294.5,511.5 290.5,511.5 286.5,511.5C 277.291,506.408 274.125,498.741 277,488.5C 303.2,437.633 311.533,383.967 302,327.5C 298.521,310.064 294.021,292.897 288.5,276C 291.423,262.037 299.756,257.037 313.5,261C 315.96,262.458 318.127,264.291 320,266.5C 336.214,307.999 342.548,350.999 339,395.5C 338.23,402.54 337.563,409.54 337,416.5C 348.621,443.121 366.955,463.788 392,478.5C 397.504,487.975 396.338,496.475 388.5,504C 382.675,506.923 376.675,507.256 370.5,505C 352.63,494.631 337.463,481.131 325,464.5C 319.644,479.711 312.811,494.211 304.5,508C 302.568,509.459 300.568,510.625 298.5,511.5 Z"/></g>
</svg>
